<?xml version="1.0" standalone="no"?><!-- Generator: Gravit.io --><svg xmlns="http://www.w3.org/2000/svg" xmlns:xlink="http://www.w3.org/1999/xlink" style="isolation:isolate" viewBox="0 0 905.117 640" width="905.117" height="640"><defs><clipPath id="_clipPath_QylkVyJLKqVvkywxAWO93VHlsHFxwGrs"><rect width="905.117" height="640"/></clipPath></defs><g clip-path="url(#_clipPath_QylkVyJLKqVvkywxAWO93VHlsHFxwGrs)"><g id="Background"><linearGradient id="_lgradient_0" x1="49.99940610523816%" y1="59.46529480933983%" x2="49.999406105238165%" y2="3.0441458088358853%"><stop offset="0%" stop-opacity="1" style="stop-color:rgb(255,255,255)"/><stop offset="100%" stop-opacity="1" style="stop-color:rgb(66,168,145)"/></linearGradient><rect x="0" y="0" width="905.117" height="640" transform="matrix(1,0,0,1,0,0)" fill="url(#_lgradient_0)"/><path d=" M 0 356.392 L 0 305.003 C 0 305.003 10.751 285.758 27.952 282.426 C 45.154 279.093 46.229 305.003 46.229 305.003 C 46.229 305.003 52.679 287.801 62.355 286.188 C 72.031 284.576 82.782 298.337 82.782 298.337 C 82.782 298.337 78.481 276.298 103.208 270.17 C 127.935 264.042 141.912 294.789 141.912 294.789 C 141.912 294.789 150.835 259.419 163.521 259.634 C 176.314 259.849 170.939 291.564 170.939 291.564 C 170.939 291.564 184.915 254.151 213.943 246.733 C 242.97 239.315 263.397 286.188 263.397 286.188 C 263.397 286.188 260.601 264.257 273.287 258.236 C 285.973 252.216 295.649 275.008 295.649 275.008 C 295.649 275.008 296.079 266.407 310.916 265.224 C 325.752 264.042 340.803 286.188 340.803 286.188 C 340.803 286.188 349.404 265.977 374.131 259.634 C 398.858 253.398 417.027 305.11 417.027 305.11 C 417.027 305.11 418.424 274.147 434.443 270.17 C 450.462 266.192 460.353 286.188 460.353 286.188 C 460.353 286.188 464.438 258.344 495.616 251.571 C 526.793 244.798 530.234 308.55 530.234 308.55 C 530.234 308.55 537.544 288.876 552.595 286.188 C 567.647 283.501 577 301.885 577 301.885 C 577 301.885 582.268 264.794 605.06 259.634 C 627.852 254.473 642.365 282.641 642.365 282.641 C 642.365 282.641 648.171 253.076 664.297 246.733 C 680.423 240.39 674.08 286.188 674.08 286.188 C 674.08 286.188 688.916 255.548 706.44 258.236 C 723.964 260.924 727.835 287.694 727.835 287.694 C 727.835 287.694 741.166 261.354 746.864 261.569 C 752.562 261.891 783.739 274.9 783.739 274.9 C 783.739 274.9 776.214 250.281 795.565 245.873 C 814.917 241.465 825.668 270.062 825.668 270.062 C 825.668 270.062 832.118 242.002 843.944 239.53 C 855.77 237.057 867.596 287.586 867.596 287.586 C 867.596 287.586 869.746 271.997 882.647 268.019 C 895.548 264.042 889.098 294.682 889.098 294.682 L 905.117 291.134 L 905.117 356.284 L 0 356.284 L 0 356.392 Z " fill="rgb(255,255,255)"/><g id="Group"><rect x="0" y="350.586" width="905.117" height="289.414" transform="matrix(1,0,0,1,0,0)" fill="rgb(100,159,199)"/><rect x="0" y="418.317" width="905.117" height="221.576" transform="matrix(1,0,0,1,0,0)" fill="rgb(114,204,222)"/><g id="Group"><path d=" M 273.395 408.211 C 273.395 408.211 271.997 375.958 282.748 365.96 C 293.499 355.962 301.562 373.808 301.562 373.808 C 301.562 373.808 308.55 340.265 319.946 335.212 C 331.45 330.16 347.253 355.209 347.253 355.209 C 347.253 355.209 349.404 338.223 355.854 334.567 C 362.305 330.912 370.153 341.771 370.153 341.771 C 370.153 341.771 379.399 325.537 389.504 319.301 C 399.503 313.066 416.704 346.071 416.704 346.071 C 416.704 346.071 435.733 308.55 447.344 305.755 C 459.063 303.067 481.962 347.469 481.962 347.469 C 481.962 347.469 479.059 324.569 492.713 323.494 C 506.367 322.419 509.914 346.071 509.914 346.071 C 509.914 346.071 519.698 331.772 530.234 331.772 C 540.769 331.772 553.133 357.037 553.133 357.037 C 553.133 357.037 562.701 344.996 570.872 344.673 C 579.042 344.351 578.505 365.422 578.505 365.422 C 578.505 365.422 588.288 353.704 600.437 357.037 C 612.478 360.37 618.606 386.172 618.606 386.172 C 618.606 386.172 621.508 376.926 633.119 377.248 C 644.73 377.571 646.881 409.824 646.881 409.824 L 258.451 413.909 C 258.344 413.694 260.494 393.805 273.395 408.211 Z " fill="rgb(111,162,65)"/><path d=" M 285.651 371.658 C 292.101 369.508 302.852 379.399 302.852 379.399 C 302.852 379.399 313.603 345.211 321.881 344.136 C 330.16 342.953 348.436 361.66 348.436 361.66 C 348.436 361.66 351.769 342.631 356.714 341.556 C 361.66 340.48 371.335 345.856 371.335 345.856 C 371.335 345.856 385.634 327.902 393.16 328.117 C 400.685 328.332 415.952 350.586 415.952 350.586 C 415.952 350.586 441.001 312.958 449.817 314.571 C 458.74 316.183 482.392 350.586 482.392 350.586 C 482.392 350.586 484.327 331.45 493.788 330.052 C 503.249 328.654 509.914 351.231 509.914 351.231 C 509.914 351.231 524.536 338.653 533.244 339.083 C 541.952 339.513 552.918 359.617 552.918 359.617 C 552.918 359.617 566.571 350.156 570.442 350.909 C 574.42 351.661 576.355 370.045 576.355 370.045 C 576.355 370.045 591.191 361.982 600.222 363.165 C 609.252 364.347 618.498 386.064 618.498 386.064 C 618.498 386.064 612.37 360.37 600.329 356.929 C 588.288 353.489 578.397 365.315 578.397 365.315 C 578.397 365.315 578.935 344.243 570.764 344.566 C 562.594 344.888 553.025 356.929 553.025 356.929 C 553.025 356.929 540.662 331.665 530.126 331.665 C 519.59 331.665 509.807 345.963 509.807 345.963 C 509.807 345.963 506.259 322.311 492.605 323.387 C 478.952 324.462 481.855 347.361 481.855 347.361 C 481.855 347.361 458.955 302.96 447.237 305.648 C 435.518 308.335 416.597 345.963 416.597 345.963 C 416.597 345.963 399.503 312.958 389.397 319.194 C 379.399 325.429 370.045 341.663 370.045 341.663 C 370.045 341.663 362.197 330.805 355.747 334.46 C 349.296 338.115 347.146 355.102 347.146 355.102 C 347.146 355.102 331.342 330.052 319.839 335.105 C 308.335 340.158 301.455 373.701 301.455 373.701 C 301.455 373.701 293.392 355.747 282.641 365.852 C 271.89 375.851 273.287 408.103 273.287 408.103 C 273.287 408.103 279.2 373.808 285.651 371.658 Z " fill="rgb(145,188,62)"/></g><path d=" M 462.933 570.979 C 433.798 570.979 391.225 567.969 351.769 563.024 C 283.286 554.53 275.33 547.65 271.46 544.317 C 266.299 539.802 264.257 533.566 265.977 527.331 C 267.804 520.988 272.535 515.505 288.016 508.624 C 271.782 507.334 254.258 505.721 236.842 504.109 C 198.676 500.454 168.144 496.691 145.782 493.143 C 131.913 490.885 121.27 488.628 113.422 486.37 C 107.079 484.542 92.35 480.242 89.77 468.308 C 88.695 463.04 90.2 457.773 94.07 453.257 C 98.693 447.882 109.551 435.411 225.446 417.242 C 292.854 406.706 370.368 398.535 432.938 395.31 C 444.764 394.665 457.558 394.45 470.889 394.45 C 532.814 394.45 610.865 401.33 679.671 412.834 C 792.34 431.648 803.521 448.204 807.176 453.687 C 811.154 459.493 811.262 466.481 807.499 472.824 C 803.198 480.134 793.415 489.058 750.842 504.431 C 726.007 513.355 692.679 523.568 654.514 533.781 C 582.16 553.24 507.119 568.937 480.134 570.442 C 475.081 570.872 469.276 570.979 462.933 570.979 Z " fill="rgb(180,225,224)"/><path d=" M 460.675 560.336 C 436.486 560.336 401.115 557.326 368.325 552.488 C 311.991 544.102 305.433 537.329 302.852 534.749 C 299.627 531.416 298.552 527.116 299.735 522.923 C 301.67 516.472 308.228 510.237 333.492 500.131 C 315.323 498.411 293.929 496.368 272.427 493.896 C 240.712 490.24 215.233 486.585 196.741 482.93 C 165.671 476.909 154.705 471.534 152.878 461.965 C 152.34 459.278 152.555 455.085 156.318 450.677 C 159.758 446.699 170.079 434.551 264.472 417.027 C 320.161 406.706 384.129 398.643 435.626 395.525 C 445.517 394.88 456.052 394.665 467.126 394.665 C 518.623 394.665 583.558 401.545 640.753 412.941 C 667.2 418.209 690.422 424.23 707.838 430.143 C 735.145 439.496 741.918 446.699 744.821 451.86 C 746.326 454.44 748.154 459.815 744.176 466.481 C 740.736 472.179 732.458 480.564 697.84 495.293 C 677.091 504.216 649.461 514.215 618.068 524.213 C 558.508 543.242 496.906 558.723 474.759 560.121 C 470.781 560.121 465.943 560.336 460.675 560.336 Z " fill="rgb(255,255,255)"/><g id="Group"><g id="Group"><path d=" M 163.628 446.162 L 163.628 454.44 C 163.628 454.44 233.617 480.994 254.473 482.392 C 275.223 483.79 370.045 486.692 370.045 486.692 L 310.916 519.268 L 316.076 531.094 C 316.076 531.094 422.187 555.498 464.438 554.746 C 506.689 553.993 642.258 515.935 736.113 459.385 L 735.575 441.861 L 163.628 446.162 Z " fill="rgb(204,177,143)"/><path d=" M 436.593 386.924 C 549.585 379.506 722.674 417.134 735.575 441.861 C 748.476 466.588 520.45 539.694 474.221 542.92 C 427.993 546.145 320.591 530.018 310.916 519.268 C 301.24 508.517 381.656 482.715 381.656 482.715 C 381.656 482.715 166.854 465.513 163.628 446.162 C 160.403 426.81 323.494 394.342 436.593 386.924 Z " fill="rgb(255,234,189)"/><path d=" M 735.575 441.861 C 731.705 434.443 713.428 425.842 686.659 417.672 C 697.41 428.53 703.968 441.431 691.282 451.537 C 663.759 473.469 405.308 514.967 401.008 503.141 C 396.708 491.315 415.844 454.87 415.844 454.87 C 415.844 454.87 210.717 448.312 211.792 439.174 C 212.222 435.303 216.738 427.67 221.791 420.144 C 185.99 429.283 162.338 438.636 163.628 446.162 C 166.854 465.513 381.656 482.715 381.656 482.715 C 381.656 482.715 301.24 508.517 310.916 519.268 C 320.591 530.018 428.1 546.145 474.221 542.92 C 520.343 539.694 748.476 466.588 735.575 441.861 Z " fill="rgb(240,213,172)"/><path d=" M 655.051 428.638 C 655.051 428.638 638.172 426.165 634.302 428.638 C 630.324 431.11 638.28 438.636 644.73 439.711 C 651.181 440.786 678.381 431.863 655.051 428.638 Z " fill="rgb(240,213,172)"/><path d=" M 610.328 445.087 C 610.328 445.087 609.575 451.537 612.478 454.01 C 615.381 456.482 622.476 453.257 622.154 449.494 C 621.723 445.839 610.22 440.679 610.328 445.087 Z " fill="rgb(240,213,172)"/></g><g id="Group"><g id="Group"><path d=" M 398.858 141.374 L 427.455 434.766 C 427.455 434.766 439.711 440.464 451.967 439.711 C 464.223 438.851 469.921 432.293 469.921 432.293 L 412.404 137.289 L 398.858 141.374 Z " fill="rgb(106,84,63)"/><g id="Group"><path d=" M 356.499 79.557 C 343.168 73.106 325.537 112.669 325.537 112.669 C 325.537 112.669 333.707 112.669 341.663 113.422 L 351.661 96.758 L 346.071 113.852 C 349.081 114.174 351.769 114.712 353.812 115.249 C 355.639 115.787 359.187 117.615 363.487 120.087 L 369.508 113.637 L 367.143 122.238 C 381.871 130.838 402.19 144.169 402.19 144.169 L 400.9 129.548 C 401.115 129.441 369.83 86.007 356.499 79.557 Z " fill="rgb(67,109,51)"/><path d=" M 414.554 98.263 L 426.38 102.886 C 426.918 102.241 427.348 101.596 427.778 101.166 C 429.82 98.801 435.733 91.92 442.399 83.964 L 427.885 81.814 L 446.377 79.342 C 457.558 66.01 469.491 51.712 469.491 51.712 C 469.491 51.712 431.755 53.324 415.737 68.591 C 399.718 83.857 399.503 129.871 399.503 129.871 L 402.298 143.847 C 402.298 143.847 416.167 118.475 424.122 106.434 L 414.554 98.263 Z " fill="rgb(52,85,40)"/><path d=" M 318.119 142.234 C 294.897 162.338 303.497 201.794 303.497 201.794 L 318.119 193.193 L 323.279 167.176 L 326.827 188.14 L 355.639 171.369 L 351.339 149.222 L 362.52 167.284 L 402.298 144.062 L 401.008 129.441 C 401.115 129.441 341.341 122.13 318.119 142.234 Z " fill="rgb(52,85,40)"/><path d=" M 460.353 82.029 L 484.542 98.586 C 498.518 96.22 515.075 94.178 515.075 94.178 C 515.075 94.178 482.07 70.203 458.31 73.214 C 434.551 76.224 396.493 131.161 396.493 131.161 L 402.405 144.169 C 402.405 144.169 421.22 131.591 438.743 120.195 L 430.895 105.036 L 444.334 116.647 C 454.977 109.767 464.331 104.069 467.448 102.671 C 469.168 101.918 472.071 101.166 475.727 100.413 L 460.353 82.029 Z " fill="rgb(67,109,51)"/><path d=" M 557.863 168.681 C 557.863 168.681 525.396 131.591 501.851 119.98 C 478.307 108.369 401.008 129.441 401.008 129.441 L 402.298 144.062 L 446.377 151.05 L 446.377 126.86 L 454.655 152.34 L 512.28 161.478 L 504.109 137.719 L 519.268 162.553 L 557.863 168.681 Z " fill="rgb(52,85,40)"/><path d=" M 401.115 129.441 L 402.405 144.062 C 402.405 144.062 426.702 163.628 444.764 179.432 L 455.192 168.251 L 448.527 182.657 C 453.902 187.388 458.418 191.581 461.213 194.483 C 466.051 199.644 474.436 209.642 482.715 219.748 L 489.38 193.946 L 488.413 226.736 C 499.056 239.852 508.302 251.678 508.302 251.678 C 508.302 251.678 523.46 205.557 496.046 173.304 C 464.653 136.536 401.115 129.441 401.115 129.441 Z " fill="rgb(67,109,51)"/><path d=" M 358.542 150.082 C 344.243 161.371 315.108 202.869 311.346 218.673 C 307.475 234.477 335.105 281.243 335.105 281.243 C 335.105 281.243 338.008 270.385 341.878 256.194 L 324.569 227.274 L 344.673 246.088 C 346.071 241.035 347.469 235.659 348.974 230.499 L 332.847 218.458 L 350.371 225.446 C 355.102 208.567 359.402 193.946 360.477 192.118 C 361.122 191.151 363.38 188.248 366.713 184.485 L 357.682 175.992 L 370.153 180.507 C 382.624 166.101 402.513 144.062 402.513 144.062 L 401.223 129.441 C 401.115 129.441 372.841 138.901 358.542 150.082 Z " fill="rgb(67,109,51)"/></g><g id="Group"><g id="Group"><path d=" M 402.405 177.712 L 403.373 187.28 L 422.08 186.42 L 420.682 179.217 L 402.405 177.712 Z " fill="rgb(152,117,85)"/><path d=" M 428.53 219.426 L 406.706 222.113 L 408.103 236.304 L 430.788 230.929 L 428.53 219.426 Z " fill="rgb(152,117,85)"/><path d=" M 440.894 282.533 L 437.668 266.514 L 411.221 268.019 L 412.404 279.845 L 440.894 282.533 Z " fill="rgb(152,117,85)"/><path d=" M 447.022 314.463 L 415.952 316.506 L 417.027 328.009 L 449.709 328.009 L 447.022 314.463 Z " fill="rgb(152,117,85)"/><path d=" M 457.88 369.938 L 421.327 371.873 L 423.047 388.859 L 460.353 382.409 L 457.88 369.938 Z " fill="rgb(152,117,85)"/></g></g></g><g id="Group"><path d=" M 630.969 170.186 C 630.969 170.186 604.307 273.61 594.201 299.412 C 584.203 325.107 482.392 426.918 482.392 426.918 C 482.392 426.918 490.24 434.766 498.841 439.066 C 507.442 443.366 524.643 439.066 524.643 439.066 C 524.643 439.066 604.522 336.288 611.618 314.248 C 618.821 292.209 642.258 170.186 642.258 170.186 L 630.969 170.186 L 630.969 170.186 Z " fill="rgb(106,84,63)"/><g id="Group"><path d=" M 686.874 112.454 C 700.205 106.004 717.836 145.567 717.836 145.567 C 717.836 145.567 709.666 145.567 701.71 146.32 L 691.712 129.656 L 697.302 146.75 C 694.292 147.072 691.604 147.61 689.562 148.147 C 687.734 148.685 684.186 150.512 679.886 152.985 L 673.865 146.535 L 676.23 155.135 C 661.502 163.736 641.183 177.067 641.183 177.067 L 642.473 162.446 C 642.365 162.338 673.543 118.905 686.874 112.454 Z " fill="rgb(98,131,57)"/><path d=" M 628.819 131.161 L 616.993 135.784 C 616.456 135.139 616.026 134.494 615.595 134.063 C 613.553 131.698 607.64 124.818 600.974 116.862 L 615.595 114.819 L 597.104 112.347 C 585.923 99.016 573.99 84.717 573.99 84.717 C 573.99 84.717 611.725 86.33 627.744 101.596 C 643.763 116.862 643.978 162.876 643.978 162.876 L 641.183 176.852 C 641.183 176.852 627.314 151.48 619.358 139.439 L 628.819 131.161 Z " fill="rgb(65,112,53)"/><path d=" M 725.362 175.132 C 748.584 195.236 739.983 234.692 739.983 234.692 L 725.362 226.091 L 720.202 200.074 L 716.654 221.038 L 687.841 204.267 L 692.142 182.12 L 680.961 200.181 L 641.183 176.96 L 642.473 162.338 C 642.365 162.338 702.033 155.028 725.362 175.132 Z " fill="rgb(65,112,53)"/><path d=" M 583.128 114.927 L 558.938 131.483 C 544.962 129.118 528.406 127.075 528.406 127.075 C 528.406 127.075 561.411 103.101 585.17 106.111 C 608.93 109.121 646.988 164.058 646.988 164.058 L 641.075 177.067 C 641.075 177.067 622.261 164.488 604.737 153.093 L 612.585 137.934 L 599.254 149.437 C 588.611 142.557 579.258 136.859 576.14 135.461 C 574.42 134.709 571.517 133.956 567.862 133.203 L 583.128 114.927 Z " fill="rgb(98,131,57)"/><path d=" M 485.51 201.579 C 485.51 201.579 517.977 164.488 541.522 152.878 C 565.066 141.267 642.365 162.338 642.365 162.338 L 641.075 176.96 L 596.996 183.948 L 596.996 159.866 L 588.718 185.345 L 531.094 194.483 L 539.264 170.724 L 524.105 195.559 L 485.51 201.579 Z " fill="rgb(65,112,53)"/><path d=" M 642.365 162.338 L 641.075 176.96 C 641.075 176.96 616.778 196.526 598.717 212.33 L 588.288 201.149 L 594.954 215.555 C 589.578 220.286 585.063 224.478 582.268 227.381 C 577.43 232.542 569.044 242.54 560.766 252.646 L 554.1 226.844 L 555.068 259.634 C 544.425 272.75 535.179 284.576 535.179 284.576 C 535.179 284.576 520.02 238.455 547.435 206.202 C 578.828 169.541 642.365 162.338 642.365 162.338 Z " fill="rgb(98,131,57)"/><path d=" M 684.939 183.088 C 699.237 194.376 728.372 235.874 732.135 251.678 C 736.005 267.482 708.376 314.248 708.376 314.248 C 708.376 314.248 705.473 303.39 701.603 289.199 L 718.911 260.279 L 698.807 279.093 C 697.41 274.04 696.012 268.665 694.507 263.504 L 710.633 251.463 L 693.109 258.451 C 688.379 241.572 684.079 226.951 683.004 225.123 C 682.358 224.156 680.101 221.253 676.768 217.49 L 685.799 208.997 L 673.328 213.513 C 660.857 199.106 640.968 177.067 640.968 177.067 L 642.258 162.446 C 642.365 162.338 670.64 171.799 684.939 183.088 Z " fill="rgb(98,131,57)"/></g><g id="Group"><path d=" M 537.437 422.617 C 539.372 420.037 541.522 417.242 543.78 414.231 L 513.785 394.88 C 510.559 398.213 507.549 401.438 504.646 404.341 L 537.437 422.617 Z " fill="rgb(152,117,85)"/><path d=" M 546.79 359.509 C 544.425 362.197 541.952 364.777 539.479 367.465 L 569.474 379.506 C 571.409 376.818 573.345 374.238 575.172 371.55 L 546.79 359.509 Z " fill="rgb(152,117,85)"/><path d=" M 580.44 320.376 C 579.258 321.774 578.075 323.279 576.892 324.784 L 594.416 344.028 C 595.921 341.771 597.319 339.62 598.717 337.578 L 580.44 320.376 Z " fill="rgb(152,117,85)"/><path d=" M 616.671 295.112 C 617.316 292.424 617.961 289.521 618.606 286.511 L 600.329 281.136 C 599.469 283.716 598.717 286.188 597.964 288.554 L 616.671 295.112 Z " fill="rgb(152,117,85)"/><path d=" M 612.263 240.282 C 611.403 243.292 610.543 246.303 609.682 249.313 L 626.239 251.141 C 626.776 248.453 627.314 245.873 627.852 243.185 L 612.263 240.282 Z " fill="rgb(152,117,85)"/><path d=" M 622.261 203.407 C 621.508 206.202 620.756 208.997 620.003 211.9 L 633.764 214.158 C 634.195 211.792 634.732 209.427 635.162 207.062 L 622.261 203.407 Z " fill="rgb(152,117,85)"/></g></g></g></g><g id="Group"><path d=" M 382.516 441.861 C 382.516 441.861 376.603 423.585 394.88 416.597 C 413.156 409.609 413.909 424.66 413.909 424.66 C 413.909 424.66 417.779 403.158 432.938 397.783 C 448.097 392.407 461.428 411.651 461.428 411.651 C 461.428 411.651 463.686 391.44 479.812 388.859 C 495.938 386.279 507.227 419.284 507.227 419.284 C 507.227 419.284 514.967 409.071 529.803 408.211 C 544.64 407.243 548.08 431.648 548.08 431.648 C 548.08 431.648 566.894 408.534 569.044 439.711 C 569.044 439.711 507.119 449.387 481.64 449.387 C 456.16 449.387 382.516 441.861 382.516 441.861 Z " fill="rgb(111,162,65)"/><g id="Group"><line x1="413.909" y1="424.66" x2="413.909" y2="424.66"/><path d=" M 529.803 408.211 C 514.967 409.179 507.227 419.284 507.227 419.284 C 507.227 419.284 495.938 386.279 479.812 388.859 C 463.686 391.44 461.428 411.651 461.428 411.651 C 461.428 411.651 448.097 392.407 432.938 397.783 C 417.779 403.158 413.909 424.66 413.909 424.66 C 413.909 424.66 428.96 408.964 438.636 408.211 C 448.312 407.458 464.438 419.069 464.438 419.069 C 464.438 419.069 474.114 397.783 482.5 397.783 C 490.778 397.783 509.592 430.035 509.592 430.035 C 509.592 430.035 518.408 413.156 531.094 413.694 C 543.78 414.231 548.08 431.648 548.08 431.648 C 548.08 431.648 544.64 407.243 529.803 408.211 Z " fill="rgb(145,188,62)"/></g></g><path d=" M 757.937 454.977 C 757.937 454.977 753.637 476.802 746.864 482.822 C 739.983 488.843 679.456 511.742 679.456 511.742 C 679.456 511.742 746.541 497.228 757.937 483.36 C 763.958 475.942 757.937 454.977 757.937 454.977 Z " fill="rgb(255,255,255)"/><path d=" M 524.213 577 C 524.213 577 654.084 554.1 683.434 549.048 C 712.783 543.995 783.739 506.689 783.739 506.689 C 783.739 506.689 718.911 556.896 686.874 564.744 C 654.729 572.699 524.213 577 524.213 577 Z " fill="rgb(180,225,224)"/><path d=" M 70.633 477.339 C 70.633 477.339 89.985 494.541 110.734 501.744 C 131.483 508.947 193.838 511.742 193.838 511.742 C 193.838 511.742 129.333 518.945 107.831 511.742 C 86.33 504.539 70.633 477.339 70.633 477.339 Z " fill="rgb(180,225,224)"/><path d=" M 258.344 554.746 C 258.344 554.746 305.755 573.345 323.602 577 C 341.556 580.548 401.115 583.45 401.115 583.45 C 401.115 583.45 348.006 589.901 320.806 587.751 C 293.499 585.601 258.344 554.746 258.344 554.746 Z " fill="rgb(180,225,224)"/></g></g></g></svg>